<svg width="26" height="26" viewBox="0 0 26 26" fill="none" xmlns="http://www.w3.org/2000/svg">
<path fill-rule="evenodd" clip-rule="evenodd" d="M13 26C5.8203 26 5.97646e-06 20.1797 6.29029e-06 13C6.60413e-06 5.8203 5.82031 2.54414e-07 13 5.68248e-07C20.1797 8.82083e-07 26 5.8203 26 13C26 20.1797 20.1797 26 13 26ZM7.00001 21C7.00001 22.3807 8.1193 23.5 9.50001 23.5C10.8807 23.5 12 22.3807 12 21C12 19.6193 10.8807 18.5 9.50001 18.5C8.1193 18.5 7.00001 19.6193 7.00001 21ZM9.50001 7.5C8.11929 7.5 7.00001 6.38071 7.00001 5C7.00001 3.61929 8.1193 2.5 9.50001 2.5C10.8807 2.5 12 3.61929 12 5C12 6.38071 10.8807 7.5 9.50001 7.5ZM4.50001 10C5.88072 10 7.00001 11.1193 7.00001 12.5C7.00001 13.8807 5.88072 15 4.50001 15C3.11929 15 2.00001 13.8807 2.00001 12.5C2.00001 11.1193 3.11929 10 4.50001 10ZM18.1355 23.1817C16.9829 23.7219 15.7476 24 14.5 24L14.5 13.25L14.5 2.5C15.7476 2.5 16.9829 2.77806 18.1355 3.3183C19.2881 3.85853 20.3354 4.65037 21.2175 5.6486C22.0997 6.64683 22.7994 7.8319 23.2769 9.13615C23.7543 10.4404 24 11.8383 24 13.25C24 14.6617 23.7543 16.0596 23.2769 17.3638C22.7994 18.6681 22.0997 19.8532 21.2175 20.8514C20.3354 21.8496 19.2881 22.6415 18.1355 23.1817Z" fill="url(#paint0_linear_34_4584)"/>
<defs>
<linearGradient id="paint0_linear_34_4584" x1="26" y1="1.1365e-06" x2="1.27789" y2="29.1626" gradientUnits="userSpaceOnUse">
<stop stop-color="#FFEE58"/>
<stop offset="1" stop-color="#FF8F00"/>
</linearGradient>
</defs>
</svg>
